<svg xmlns="http://www.w3.org/2000/svg" width="158.5" height="32.997" viewBox="0 0 158.5 32.997">
  <g id="Group_670" data-name="Group 670" transform="translate(-360 2107.498)">
    <g id="Group_8" data-name="Group 8" transform="translate(360.096 -2107.498)">
      <path id="Path_47" data-name="Path 47" d="M17.528,59.037H10.612L9.459,62.4H4.8l6.724-18.3h5.139l6.724,18.3H18.633Zm-1.153-3.41L14.07,48.855l-2.305,6.772Z" transform="translate(-4.8 -43.956)" fill="#303470"/>
      <path id="Path_48" data-name="Path 48" d="M53.319,58.833h5.956v3.41H48.9V43.8h4.467V58.833Z" transform="translate(-27.719 -43.8)" fill="#303470"/>
      <path id="Path_49" data-name="Path 49" d="M80.967,47.354V51.2h6.244v3.362H80.967v4.083h7.012V62.2H76.5V43.8H87.979v3.554Z" transform="translate(-42.062 -43.8)" fill="#303470"/>
      <path id="Path_50" data-name="Path 50" d="M117.14,62.3l-3.89-5.716L109.935,62.3h-5.091l5.908-9.462L104.7,43.9h5.283l3.794,5.523,3.266-5.523h5.091l-5.812,9.27,6.2,9.126Z" transform="translate(-56.718 -43.852)" fill="#303470"/>
      <path id="Path_51" data-name="Path 51" d="M156.876,59.037H149.96L148.807,62.4H144.1l6.724-18.3h5.139l6.724,18.3h-4.755Zm-1.153-3.41-2.305-6.772-2.305,6.772Z" transform="translate(-77.194 -43.956)" fill="#303470"/>
      <path id="Path_52" data-name="Path 52" d="M204.578,62.244h-4.467l-7.445-11.287V62.244H188.2V43.8h4.467l7.445,11.431V43.8h4.467Z" transform="translate(-100.112 -43.8)" fill="#303470"/>
      <path id="Path_53" data-name="Path 53" d="M245.818,57.777a8.044,8.044,0,0,1-3.314,3.266,10.821,10.821,0,0,1-5.139,1.153H230.4V43.8h6.964a10.821,10.821,0,0,1,5.139,1.153,7.933,7.933,0,0,1,3.314,3.218,10.583,10.583,0,0,1,0,9.606Zm-4.8-.913a5.11,5.11,0,0,0,1.441-3.89,5.11,5.11,0,0,0-1.441-3.89,5.634,5.634,0,0,0-4.035-1.393h-2.113V58.209h2.113A5.412,5.412,0,0,0,241.015,56.864Z" transform="translate(-122.044 -43.8)" fill="#303470"/>
      <path id="Path_54" data-name="Path 54" d="M276.367,47.354V51.2h6.244v3.362h-6.244v4.083h7.012V62.2H271.9V43.8h11.479v3.554Z" transform="translate(-143.611 -43.8)" fill="#303470"/>
      <path id="Path_55" data-name="Path 55" d="M312.162,62.244l-3.987-6.964h-1.009v6.964H302.7V43.8h7.589a7.942,7.942,0,0,1,3.7.768,4.99,4.99,0,0,1,2.257,2.065,6.148,6.148,0,0,1,.768,3.026,5.209,5.209,0,0,1-4.323,5.331l4.371,7.253h-4.9Zm-5-10.038H309.9a2.921,2.921,0,0,0,1.969-.576A2.184,2.184,0,0,0,312.5,49.9a2.322,2.322,0,0,0-.624-1.729,2.575,2.575,0,0,0-1.921-.624h-2.786Z" transform="translate(-159.618 -43.8)" fill="#303470"/>
    </g>
    <g id="Group_10" data-name="Group 10" transform="translate(403.804 -2082.427)">
      <g id="Group_9" data-name="Group 9">
        <path id="Path_56" data-name="Path 56" d="M100.651,100a1.719,1.719,0,0,1-.24,2.305,2.318,2.318,0,0,1-1.585.48H95.8V96.3h2.93a2.437,2.437,0,0,1,1.537.432,1.452,1.452,0,0,1,.528,1.249,1.308,1.308,0,0,1-.336.961,1.618,1.618,0,0,1-.817.528A1.389,1.389,0,0,1,100.651,100Zm-3.266-1.057h1.009c.528,0,.817-.24.817-.72s-.288-.72-.817-.72H97.385Zm2.017,1.873a.62.62,0,0,0-.24-.528.939.939,0,0,0-.672-.192h-1.1v1.441h1.1C99.114,101.487,99.4,101.247,99.4,100.815Z" transform="translate(-95.8 -96.156)" fill="#e23b3f"/>
        <path id="Path_57" data-name="Path 57" d="M112.267,101.635h-2.45l-.384,1.2H107.8l2.4-6.436h1.825l2.4,6.436h-1.681Zm-.384-1.2-.817-2.4-.817,2.4Z" transform="translate(-102.036 -96.208)" fill="#e23b3f"/>
        <path id="Path_58" data-name="Path 58" d="M127.291,96.3v1.249h-1.777v5.235h-1.585V97.549H122.2V96.3Z" transform="translate(-109.52 -96.156)" fill="#e23b3f"/>
        <path id="Path_59" data-name="Path 59" d="M138.791,96.3v1.249h-1.777v5.235h-1.585V97.549H133.7V96.3Z" transform="translate(-115.496 -96.156)" fill="#e23b3f"/>
        <path id="Path_60" data-name="Path 60" d="M147.585,97.549v1.345h2.209v1.2h-2.209v1.441h2.45v1.249H146V96.3h4.035v1.249Z" transform="translate(-121.889 -96.156)" fill="#e23b3f"/>
        <path id="Path_61" data-name="Path 61" d="M160.014,102.784l-1.393-2.45h-.336v2.45H156.7V96.3h2.69a2.592,2.592,0,0,1,1.3.288,2.391,2.391,0,0,1,.816.72,1.936,1.936,0,0,1,.288,1.057,1.992,1.992,0,0,1-.384,1.2,1.742,1.742,0,0,1-1.153.672l1.537,2.546Zm-1.729-3.506h.961a.869.869,0,0,0,.672-.192.83.83,0,0,0,.24-.624.913.913,0,0,0-.24-.624.95.95,0,0,0-.672-.24h-.961Z" transform="translate(-127.45 -96.156)" fill="#e23b3f"/>
        <path id="Path_62" data-name="Path 62" d="M174.3,96.3l-2.257,4.323v2.161h-1.585v-2.161L168.2,96.3h1.825l1.249,2.642,1.249-2.642Z" transform="translate(-133.426 -96.156)" fill="#e23b3f"/>
        <path id="Path_63" data-name="Path 63" d="M190.991,96.3v1.249h-1.777v5.235h-1.585V97.549H185.9V96.3Z" transform="translate(-142.625 -96.156)" fill="#e23b3f"/>
        <path id="Path_64" data-name="Path 64" d="M199.785,97.549v1.345h2.209v1.2h-2.209v1.441h2.45v1.249H198.2V96.3h4.035v1.249Z" transform="translate(-149.017 -96.156)" fill="#e23b3f"/>
        <path id="Path_65" data-name="Path 65" d="M213.735,96.818a2.929,2.929,0,0,1,1.057,1.777h-1.681a1.677,1.677,0,0,0-.576-.72,1.45,1.45,0,0,0-.913-.24,1.366,1.366,0,0,0-1.1.528,2.308,2.308,0,0,0,0,2.69,1.391,1.391,0,0,0,1.1.48,1.839,1.839,0,0,0,.913-.24,1.748,1.748,0,0,0,.576-.72h1.681a3.072,3.072,0,0,1-1.057,1.777,3.5,3.5,0,0,1-3.746.24,2.831,2.831,0,0,1-1.1-1.153,3.827,3.827,0,0,1-.384-1.729,3.981,3.981,0,0,1,.384-1.729,2.566,2.566,0,0,1,1.1-1.153,3.126,3.126,0,0,1,1.681-.432A3.029,3.029,0,0,1,213.735,96.818Z" transform="translate(-154.37 -96.097)" fill="#e23b3f"/>
        <path id="Path_66" data-name="Path 66" d="M229.42,96.3v6.484h-1.585v-2.69h-2.45v2.69H223.8V96.3h1.585v2.5h2.45V96.3Z" transform="translate(-162.321 -96.156)" fill="#e23b3f"/>
        <path id="Path_67" data-name="Path 67" d="M243.812,102.784h-1.585L239.585,98.8v3.987H238V96.3h1.585l2.642,4.035V96.3h1.585Z" transform="translate(-169.701 -96.156)" fill="#e23b3f"/>
        <path id="Path_68" data-name="Path 68" d="M257.3,96.532a3.2,3.2,0,0,1,1.2,1.2,3.674,3.674,0,0,1,0,3.458,2.894,2.894,0,0,1-1.2,1.2,3.245,3.245,0,0,1-1.681.432,3.371,3.371,0,0,1-1.681-.432,3.2,3.2,0,0,1-1.2-1.2,3.674,3.674,0,0,1,0-3.458,2.894,2.894,0,0,1,1.2-1.2,3.245,3.245,0,0,1,1.681-.432A3.371,3.371,0,0,1,257.3,96.532Zm-2.93,1.537a2.308,2.308,0,0,0,0,2.69,1.592,1.592,0,0,0,1.249.528,1.491,1.491,0,0,0,1.2-.528,1.988,1.988,0,0,0,.48-1.345,1.968,1.968,0,0,0-.432-1.345,1.592,1.592,0,0,0-1.249-.528A1.665,1.665,0,0,0,254.365,98.069Z" transform="translate(-177.133 -96.052)" fill="#e23b3f"/>
        <path id="Path_69" data-name="Path 69" d="M269.837,101.583h2.113v1.2H268.3V96.3h1.585v5.283Z" transform="translate(-185.448 -96.156)" fill="#e23b3f"/>
        <path id="Path_70" data-name="Path 70" d="M282.3,96.532a3.2,3.2,0,0,1,1.2,1.2,3.674,3.674,0,0,1,0,3.458,2.894,2.894,0,0,1-1.2,1.2,3.245,3.245,0,0,1-1.681.432,3.371,3.371,0,0,1-1.681-.432,3.2,3.2,0,0,1-1.2-1.2,3.674,3.674,0,0,1,0-3.458,2.894,2.894,0,0,1,1.2-1.2,3.245,3.245,0,0,1,1.681-.432A3.371,3.371,0,0,1,282.3,96.532Zm-2.93,1.537a2.308,2.308,0,0,0,0,2.69,1.592,1.592,0,0,0,1.249.528,1.491,1.491,0,0,0,1.2-.528,1.988,1.988,0,0,0,.48-1.345,1.968,1.968,0,0,0-.432-1.345,1.592,1.592,0,0,0-1.249-.528A1.665,1.665,0,0,0,279.365,98.069Z" transform="translate(-190.125 -96.052)" fill="#e23b3f"/>
        <path id="Path_71" data-name="Path 71" d="M298.031,96.672a2.4,2.4,0,0,1,.961,1.633h-1.681a1.222,1.222,0,0,0-.528-.576,1.472,1.472,0,0,0-.817-.192,1.524,1.524,0,0,0-1.2.48,1.968,1.968,0,0,0-.432,1.345,1.94,1.94,0,0,0,.48,1.441,1.78,1.78,0,0,0,1.345.48,1.524,1.524,0,0,0,.961-.288,1.627,1.627,0,0,0,.576-.865h-1.969V98.978h3.314v1.537a4.52,4.52,0,0,1-.576,1.057,2.864,2.864,0,0,1-1.057.768,3.509,3.509,0,0,1-1.441.288,3.1,3.1,0,0,1-3.266-3.314,3.981,3.981,0,0,1,.384-1.729,2.672,2.672,0,0,1,1.153-1.153A3.245,3.245,0,0,1,295.918,96,3.806,3.806,0,0,1,298.031,96.672Z" transform="translate(-198.128 -96)" fill="#e23b3f"/>
        <path id="Path_72" data-name="Path 72" d="M309.785,96.3v6.484H308.2V96.3Z" transform="translate(-206.184 -96.156)" fill="#e23b3f"/>
        <path id="Path_73" data-name="Path 73" d="M315.685,97.549v1.345h2.209v1.2h-2.209v1.441h2.45v1.249H314.1V96.3h4.035v1.249Z" transform="translate(-209.25 -96.156)" fill="#e23b3f"/>
        <path id="Path_74" data-name="Path 74" d="M329.063,101.764a1.747,1.747,0,0,1-.768.672,2.528,2.528,0,0,1-1.249.24,2.9,2.9,0,0,1-1.777-.528,1.908,1.908,0,0,1-.768-1.489h1.681a1.054,1.054,0,0,0,.24.576.765.765,0,0,0,.576.192.717.717,0,0,0,.48-.144.609.609,0,0,0,.192-.432.775.775,0,0,0-.144-.432,2.665,2.665,0,0,0-.384-.288c-.144-.048-.384-.144-.672-.24a5.242,5.242,0,0,1-1.009-.432,2.529,2.529,0,0,1-.672-.576,1.576,1.576,0,0,1-.288-1.009,1.651,1.651,0,0,1,1.1-1.633,2.966,2.966,0,0,1,1.2-.24,2.748,2.748,0,0,1,1.729.528,1.9,1.9,0,0,1,.72,1.393h-1.681a1.066,1.066,0,0,0-.24-.528.656.656,0,0,0-.528-.192.587.587,0,0,0-.432.144.609.609,0,0,0-.192.432.545.545,0,0,0,.144.384,1.046,1.046,0,0,0,.384.24c.144.048.384.144.672.24a5.242,5.242,0,0,1,1.009.432,2.05,2.05,0,0,1,.672.624,1.671,1.671,0,0,1,.288,1.009A3.068,3.068,0,0,1,329.063,101.764Z" transform="translate(-214.655 -96)" fill="#e23b3f"/>
      </g>
    </g>
    <g id="Group_11" data-name="Group 11" transform="translate(360 -2083.916)">
      <path id="Path_75" data-name="Path 75" d="M55.312,92.9H45.994L42.2,102.314h9.318Z" transform="translate(-24.141 -92.9)" fill="#303470"/>
      <path id="Path_76" data-name="Path 76" d="M19.9,102.314h9.558L33.252,92.9h-9.51Z" transform="translate(-12.551 -92.9)" fill="#303470"/>
      <path id="Path_77" data-name="Path 77" d="M73.414,95.205V92.9h-5.62L64,102.314h9.414V100.2h2.4v-5Z" transform="translate(-35.47 -92.9)" fill="#303470"/>
      <path id="Path_78" data-name="Path 78" d="M14.59,92.9H4.6v9.414h6.2Z" transform="translate(-4.6 -92.9)" fill="#303470"/>
    </g>
  </g>
</svg>