<?xml version="1.0" encoding="UTF-8"?>
<svg id="White_-_Electric_Blue" data-name="White - Electric Blue" xmlns="http://www.w3.org/2000/svg" viewBox="0 0 820.71509 204.06971">
  <defs>
    <style>
      .cls-1 {
        fill: #286fff;
      }

      .cls-2 {
        fill: #fff;
      }
    </style>
  </defs>
  <path class="cls-2" d="M740.29414,78.55092l-2.01977,11.52859c-.93982,5.09934-7.17928,10.87104-12.46866,11.91089h0c1.70975,0,3.45953.42753,4.86951,1.38744,2.75991,1.87977,4.17965,5.19936,3.64945,8.85888v.01001c-.02002.14-.03955.27993-.06982.41993l-2.85951,16.43795h-17.03791l2.71939-15.3981c.47016-2.73965-.56975-4.91937-4.05955-4.91937h-45.09399l13.33818-13.50833h33.99576c2.73989,0,5.39923-1.69974,5.86939-4.43945l1.96948-11.33855c.47992-2.73965-.5595-4.91937-4.05906-4.91937h-51.20407l-9.63845,54.51316h-17.09797l11.9985-68.02149h72.84102c9.34893,0,16.05806,7.93901,14.35807,17.4778Z"/>
  <path class="cls-2" d="M403.13615,61.07948c11.43091,0,19.08281,9.44754,17.09862,20.87926l-4.62869,26.35842c-2.07805,11.52559-13.038,20.87926-24.46892,20.78458h-48.65461c-11.43253.09468-19.1783-9.25899-17.10024-20.78458l4.62869-26.35842c1.98418-11.43172,13.038-20.87926,24.46892-20.87926h48.65623ZM403.41937,80.63568c.56645-3.30644-1.60709-6.04642-5.0074-6.04642h-43.93206c-3.4003,0-6.61287,2.73999-7.17932,6.04642l-5.0074,28.81519c-.66193,3.30644,1.51161,6.04642,4.91353,6.1411h43.93044c3.4003-.09468,6.61287-2.83467,7.27481-6.1411l5.0074-28.81519Z"/>
  <path class="cls-2" d="M561.43439,61.07948l-41.00109,68.02226h-21.91828l-9.73157-46.0093-25.98052,46.0093h-22.01215l-16.91251-68.02226h18.42411l11.62027,53.18943,29.66567-53.18943h17.5712l-.09387.18936,10.7706,53.00007,30.51534-53.18943h19.08281Z"/>
  <polygon class="cls-1" points="224.91588 95.27997 189.74789 95.27997 176.41573 108.78974 222.53311 108.78974 224.91588 95.27997"/>
  <path class="cls-2" d="M301.62004,108.78974h-49.68907l13.33216-13.50977h34.0942c3.21257,0,5.38611-2.17354,5.85869-4.91353l2.05146-10.86446c.47258-2.73999-.56645-4.91272-4.06224-4.91272h-51.36801l-9.6377,54.51249h-17.09862l11.99736-68.02226h73.00307c9.35286,0,16.06122,7.93593,14.36026,17.47814l-2.24713,12.75478c-1.79483,10.20253-11.24156,17.47734-20.59442,17.47734Z"/>
  <g>
    <polygon class="cls-2" points="89.35576 61.07946 77.35824 129.10174 94.45669 129.10174 106.45617 61.07946 89.35576 61.07946"/>
    <polygon class="cls-2" points="161.58309 61.07946 155.54966 95.27997 117.52022 95.27997 104.1879 108.78976 153.16861 108.78976 149.58605 129.10174 166.6845 129.10174 178.68349 61.07946 161.58309 61.07946"/>
  </g>
  <path class="cls-2" d="M646.94459,61.07948l-2.36128,13.50977h-62.25906l-2.45676,13.93582h47.89881l-2.38277,13.50977h-47.87731l-2.45676,13.55711h62.25906l-2.36128,13.50977h-79.3593l11.99736-68.02226h79.3593Z"/>
</svg>