<?xml version="1.0" encoding="UTF-8"?>
<!-- Generator: Adobe Illustrator 26.0.3, SVG Export Plug-In . SVG Version: 6.00 Build 0)  -->
<svg version="1.1" id="Layer_1" xmlns="http://www.w3.org/2000/svg" xmlns:xlink="http://www.w3.org/1999/xlink" x="0px" y="0px" viewBox="0 0 438 116.7" style="enable-background:new 0 0 438 116.7;" xml:space="preserve">
<style type="text/css">
	.st0{fill-rule:evenodd;clip-rule:evenodd;fill:#2FB2BC;}
	.st1{fill:#A1D36C;}
	.st2{fill:#2F404C;}
</style>
<g>
	<g>
		<circle class="st0" cx="57.7" cy="58.5" r="52.8"/>
		<g>
			<path class="st1" d="M6.6,58.2c0-2.2,0.2-4.4,0.4-6.3c1.7-10.2,6.7-21.7,14.3-29.2v8.6c0,0.4,0.4,0.9,0.8,1.1     c0.4,0.1,0.7,0.1,1-0.2c0.9-0.9,1.4-1.6,1.9-2.7c0.8-2.3,1.1-2.5,1.3-2.6h0.1h0.1c0.9-0.6,1.9-1.1,2.9-1.5c0.5-0.2,1-0.4,1.4-0.6     c1.1-0.5,1.5-1.3,1.9-1.8c0.1-0.1,0.1-0.3,0.2-0.4c0,0,0.1,0,0.1,0.1c0.1,0.2,0.4,1.7-4.4,8c-2.2,2.7-2.5,3.4-2.5,6.8     c0,0.7,0.4,1.8,0.8,2.8c0.2,0.6,0.5,1.2,0.5,1.6c0.2,1.5-0.2,2.5-1,3.6c-1,1.3-1.4,2.7-0.9,4.1v0.1c0.6,1.1,2.5,6.1,2.1,7.1v0.1     c-0.2-0.3-0.4-0.8-0.5-1.1c-0.1-0.2-0.2-0.4-0.3-0.5v-0.1c-0.1-0.1-0.1-0.2-0.3-0.4c-0.7-1.1-2.1-3.5-3.9-3.9     c-1.9-0.3-3.5,0.4-4.8,2c-0.9,1.1-1.7,2.8-1.9,4.5c-0.6,3.4-0.2,8.5,2.9,11.9c1.5,1.5,3.4,2.3,5.7,2.1c1.7-0.1,3.6-0.6,5.9-1.6     c2.6-1.3,5-2.5,7.7-0.7c0.5,0.3,1.1,0.7,1.6,1.2c1.3,1,2.9,2.2,4.6,2.6c0.3,0.1,0.5,0.2,0.9,0.3c0.6,0.3,1.4,0.5,2.7,1     c0.3,0.1,0.5,0.1,0.7,0.3c-1.5,3.4-0.5,11.3,0.5,14.5c1.4,4.5,3.6,7.5,7.1,9.5c1.7,1.1,2.6,1.7,3.1,1.9c-7.9,1.5-11.9-1.5-15.2-4     c-1-0.7-1.9-1.5-2.9-2c-2.1-1-4.1-1.9-6-2.6c-2.2-0.9-4.2-1.7-6.4-2.9c-2.3-1.3-5-4.2-5.7-5.1c-1.1-1.3-1.1-3.3-1.1-5     c0-0.7,0-1.3-0.1-1.9c-0.3-2.3-1-3.4-1.9-4.7c-0.4-0.6-0.9-1.3-1.4-2.2c-2.7-5-6.5-10.6-11.9-11.1C6.6,58.7,6.6,58.4,6.6,58.2z"/>
			<path class="st1" d="M55.3,22.7c-4.4,2.5-2.7,8-1,12.1c-0.6,1.4-1.6,3.2-2.2,3.4c-0.1,0-0.1,0-0.1,0c-0.9-0.6-1.7-1.4-2.4-1.9     c-1.1-1-1.7-1.6-2.4-1.4C47,35,46.8,35,46.6,34.8c-0.8-0.6-1.4-2.6-1.4-3.5v-0.1c-0.1-0.9,1.5-2.6,2.7-3.9     c0.8-0.8,1.5-1.6,1.8-2.1c0.9-1.6,1.2-2.9,0.9-4c-0.4-1.3-1.5-2-2.4-2.5c-0.2-0.1-0.4-0.2-0.6-0.4l0,0c-2.6-1.4-7.1-5.1-8.4-7.7     c6-2.1,12.3-3.1,18.8-3.1c7.3,0,16.9,3,23.8,5.7c8.1,4.2,14.9,10.5,19.7,18.4c0.9,1.4,1.6,2.8,2.4,4.3c-5.4,0.7-8.5,0.8-13.6-1.3     c-0.4-0.1-0.8,0-1,0.3s-0.2,0.8,0.1,1c0.2,0.2,0.4,0.4,0.7,0.6c1.1,1,2.8,2.6,4.9,5.4c1.8,2.5,3.3,4.9,1.9,6.8     c-2.1,3.4-2.7,5.9-2.2,9.4c2.2,13.4-5.9,28-7.7,30c-1.9,0.6-3.7-2.5-3.7-2.5v-0.1c-1.1-2.9-2.2-6-1.9-9.7     c0.3-4.2-0.1-13-3.2-15.8c-0.9-0.8-3-0.2-5.4,0.5c-2.7,0.8-5.7,1.7-7,0.5c-3.6-3.4-4.3-17.9-2.8-19.5c1-1.3,3.4-2.7,6-4.4     c3.9-2.4,8.4-5.1,9.3-8V29v-0.1c0-0.1,0-0.4,0.1-0.6c0.1-0.9,0.4-2.4-0.8-4.1c-0.4-0.8-2.3-2.3-2.3-2.3c-1.3-1-3.4-2.4-5.9-3.1     c-3-0.9-6.2-1.6-9.2-0.2c-0.6,0.2-0.8,0.6-0.8,0.9c-0.1,0.6,0.4,1.1,0.5,1.3l0.3,0.3c1.2,1.5,2.6,3.1,3.6,4.7l0,0     c0.5,0.7,0.6,1.1-0.1,2.3c-0.3,0.4-1,1.2-1.5,1.7c0-0.3-0.1-0.8-0.1-1.6c-0.3-1.5-3.5-4.6-4.7-5.5l-0.1-0.1     C56.9,22.6,56.2,22.1,55.3,22.7z"/>
		</g>
		<g>
			<path class="st2" d="M95.4,14c12.7,4.4,19.1,16.4,18,26.4C113.3,40.5,107.5,21.9,95.4,14z"/>
			<path class="st2" d="M26.4,108.5c-13.1-2.8-21-13.9-21.2-23.9C5.2,84.6,13.4,102.3,26.4,108.5z"/>
		</g>
		<path class="st2" d="M57.8,4.9C28.2,4.9,4.1,29,4.1,58.6s24.1,53.7,53.7,53.7s53.7-24.1,53.7-53.7S87.4,4.9,57.8,4.9z M7.3,58.6    c0-13.5,5.3-25.8,14-34.9v7.6c0,0.4,0.4,0.9,0.8,1.1c0.4,0.1,0.7,0.1,1-0.2c0.9-0.9,1.4-1.6,1.9-2.7c0.8-2.3,1.1-2.5,1.3-2.6h0.1    h0.1c0.9-0.6,1.9-1.1,2.9-1.5c0.5-0.2,1-0.4,1.4-0.6c1.1-0.5,1.5-1.3,1.9-1.8c0.1-0.1,0.1-0.3,0.2-0.4c0,0,0.1,0,0.1,0.1    c0.1,0.2,0.4,1.7-4.4,8C26.3,33.3,26,34,26,37.4c0,0.7,0.4,1.8,0.8,2.8c0.2,0.6,0.5,1.2,0.5,1.6c0.2,1.5-0.2,2.5-1,3.6    c-1,1.3-1.4,2.7-0.9,4.1v0.1c0.6,1.1,2.5,6.1,2.1,7.1v0.1c-0.2-0.3-0.4-0.8-0.5-1.1c-0.1-0.2-0.2-0.4-0.3-0.5v-0.1    c-0.1-0.1-0.1-0.2-0.3-0.4c-0.7-1.1-2.1-3.5-3.9-3.9c-1.9-0.3-3.5,0.4-4.8,2c-0.9,1.1-1.7,2.8-1.9,4.5c-0.6,3.4-0.2,8.5,2.9,11.9    c1.5,1.5,3.4,2.3,5.7,2.1c1.7-0.1,3.6-0.6,5.9-1.6c2.6-1.3,5-2.5,7.7-0.7c0.5,0.3,1.1,0.7,1.6,1.2c1.3,1,2.9,2.2,4.6,2.6    c0.3,0.1,0.5,0.2,0.9,0.3c0.6,0.3,1.4,0.5,2.7,1c0.3,0.1,0.5,0.1,0.7,0.3C47,77.8,48,85.7,49,88.9c1.4,4.5,3.6,7.5,7.1,9.5    c1.7,1.1,2.6,1.7,3.1,1.9c-7.9,1.5-11.9-1.5-15.2-4c-1-0.7-1.9-1.5-2.9-2c-2.1-1-4.1-1.9-6-2.6c-2.2-0.9-4.2-1.7-6.4-2.9    c-2.3-1.3-5-4.2-5.7-5.1c-0.9-1.1-0.9-3.1-0.9-4.9c0-0.7,0-1.3-0.1-1.9c-0.3-2.3-1-3.4-1.9-4.7c-0.4-0.6-0.9-1.3-1.4-2.2    c-2.6-4.8-6.2-10.2-11.4-11C7.3,58.8,7.3,58.7,7.3,58.6z M15.3,68.8c1.3,2,2.3,4.1,3.1,6.1c0.3,0.9,0.3,2.3,0.3,3.8    c0,1,0,2.1,0.1,3c0.6,5.1,5.9,7.6,10,9.6c0.5,0.3,1,0.5,1.5,0.7c1.3,0.7,2.6,1.4,3.9,2.1c1.3,0.7,2.6,1.4,3.9,2.1    c1.5,0.8,3,1.6,4.5,2.5s3,1.7,4.5,2.5c2.5,1.3,6.1,2,9.6,2c3.1,0,6.2-0.6,8-2.1l0,0c0.3-0.3,0.3-0.5,0.2-0.7    c-0.1-0.5-0.9-0.9-2.5-1.5c-1.1-0.4-2.3-0.9-3.3-1.5c-9.7-5.6-9.1-12.7-7-22c0.1-0.2,0.1-0.4,0.1-0.5c0-1-1-2.1-1.9-2.5    c-0.8-0.4-2.6-0.9-4.4-1.4c-1.1-0.3-2.1-0.5-2.8-0.8l0,0c-1.3-0.3-2.2-1.1-3.1-2c-0.3-0.3-0.5-0.5-0.9-0.8c-2.7-2-4.6-3.1-7.6-1.8    c-0.5,0.2-1,0.5-1.5,0.8c-3.1,1.6-7,3.6-9.6,1.1c-2.5-2.3-3.3-6.5-2.9-9.6c0.3-1.9,1.6-4.4,3.1-4.9c1-0.3,1.9,0.1,3,1.1    c1.6,1.7,1.7,3.4,1.9,4.6c0.1,0.8,0.1,1.5,0.6,1.8h0.1c0.5,0.3,1.3-0.2,2.3-0.8c0.2-0.1,0.4-0.2,0.5-0.3h0.1l0.1-0.1    c1.3-1.3,1-4.4-1.1-9.6C28,49.5,28,49.4,28,49.3l0,0c-0.5-1.3-0.5-2.5,0.2-3.6c1.1-1.8,1.8-5.8,1.4-7.9c-0.9-4.9,1.1-7,4.3-10.4    l0.1-0.1c1.2-1.8,1.7-3.9,1.2-5.4c-0.3-1-0.9-1.7-1.8-2.1c-0.1-0.1-0.3-0.1-0.4,0c-0.3,0.1-0.4,0.4-0.6,0.9    c-0.3,0.8-0.8,1.9-1.9,2.1l0,0c-0.4,0.1-1,0.3-1.6,0.4c-1.2,0.3-2.5,0.7-3.3,1.1c-0.3,0.1-0.4,0.5-0.5,1.1    c-0.2,0.7-0.5,1.9-1.2,3.4c0.3-2,0.5-6.1,0.9-8.5c3.3-2.9,7.1-5.4,11.1-7.4c4.9,4.6,7.5,5.6,7.6,5.6c0.3,0.2,0.8,0.4,1.3,0.5    c1.3,0.5,3,1.1,3.3,2.3c0.2,0.6-0.1,1.4-0.8,2.3c-0.5,0.6-1.1,1.1-1.7,1.7c-1.7,1.5-3.5,3.2-3,5.8c0.2,0.9,2.1,4.8,3.9,5.5    c0.6,0.2,1,0.1,1.2-0.1c0,0,0,0,0.1,0c0.7,0.1,2.1,2.1,2.8,3c0.2,0.3,0.4,0.5,0.5,0.7l0,0c0.3,0.3,0.5,0.4,0.8,0.4    s0.6-0.1,0.8-0.4l0,0c0.4-0.5,1-1,1.5-1.5c1.4-1.2,2.8-2.5,2.5-4.9l0,0c-0.2-0.9-0.5-1.6-0.9-2.3c-0.4-0.8-0.8-1.6-0.9-2.8    c0-1.2,0-1.3,0.2-2.5c0.5-0.9,1.1-1.8,1.5-1.9c0.1,0,0.2-0.1,0.5,0.2c2.5,1.9,3.3,3.6,3.1,6.8c0,0.5,0.3,1,0.7,1.1s0.7,0.1,1-0.2    l0,0c1.1-1.3,4.2-4.4,4.6-5.2l0.1-0.1V27c0-0.6-0.9-2.1-2.6-4.5c0,0-0.3-0.4-1.1-1.2c-0.6-0.5-0.8-0.9-0.7-1    c0-0.1,0.1-0.2,0.6-0.3c4.1-0.8,8.1,2.1,10.7,4c1.3,1.1,2,2.1,2,2.1c0.7,2.3-0.4,4.5-3.1,6.4c-1.8,1.3-4,2.2-6.1,3.1    c-4.2,1.8-8.2,3.5-8.2,7.9c0,3.7,0.5,16.3,6.4,20.4c2.3,1.6,5.1,1.7,8.5,0.5c1.5-0.6,2.6-0.5,3.6,0.1c2.9,2.1,2.7,9.7,2.7,13    c0,0.5,0,0.8,0,1.1c0,2.7,1.1,5.3,2.2,7.8c0.7,1.8,2.4,3.3,3.4,3.6l0.1,0.1h0.1c0.5,0.1,1,0.1,1.5,0.1c0.7,0,1.3-0.1,1.7-0.4l0,0    l0.1-0.1l0,0c0.1-0.1,0.3-0.3,0.4-0.5c2.9-3.3,9.6-11.1,10-27.7c0-1.3-0.3-2.6-0.5-3.8c-0.5-2.4-1-4.6,0.7-7.3    c0.1-0.1,0.2-0.3,0.3-0.4c1.2-1.9,2-3.3,0.7-5.7c-1.4-2.7-3.4-4.7-4.7-5.9c2.5,1,7.3,2.8,9.9,2.9c2,5.4,3.1,11.3,3.1,17.4    c0.1,27.9-22.6,50.5-50.4,50.5c-26,0-47.4-19.7-50.2-45C11,64.4,13.2,65.9,15.3,68.8z M89.3,35.8c0.2,0.2,0.4,0.4,0.7,0.6    c1.1,1,2.8,2.6,4.9,5.4c1.8,2.5,3.3,4.9,1.9,6.8c-2.1,3.4-2.7,5.9-2.2,9.4c2.2,13.4-5.9,28-7.7,30c-2,0.5-3.7-2.5-3.7-2.5l0,0    c-1.1-2.9-2.2-6-1.9-9.7c0.3-4.2-0.1-13-3.2-15.8c-0.9-0.8-3-0.2-5.4,0.5c-2.7,0.8-5.7,1.7-7,0.5c-3.6-3.4-4.3-17.9-2.8-19.5    c1-1.3,3.4-2.7,6-4.4c3.9-2.4,8.4-5.1,9.3-8V29v-0.1c0-0.1,0-0.4,0.1-0.6c0.1-0.9,0.4-2.4-0.8-4.1c-0.4-0.8-2.3-2.3-2.3-2.3    c-1.3-1-3.4-2.4-5.9-3.1c-3-0.9-6.2-1.6-9.2-0.2c-0.6,0.2-0.8,0.6-0.8,0.9c-0.1,0.6,0.4,1.1,0.5,1.3l0.3,0.3    c1.2,1.5,2.6,3.1,3.6,4.7l0,0c0.5,0.7,0.6,1.1-0.1,2.3c-0.3,0.4-1,1.2-1.5,1.7c0-0.3-0.1-0.8-0.1-1.6c-0.3-1.5-3.5-4.6-4.7-5.5    l-0.1-0.1h-0.4c-0.4-0.1-0.9-0.1-1.3,0.1c-4.4,2.5-2.7,8-1,12.1c-0.6,1.4-1.6,3.2-2.2,3.4c-0.1,0-0.1,0-0.1,0    c-0.9-0.6-1.7-1.4-2.4-1.9c-1.1-1-1.7-1.6-2.4-1.4C47,35,46.8,35,46.6,34.8c-0.8-0.6-1.4-2.6-1.4-3.5v-0.1    c-0.1-0.9,1.5-2.6,2.7-3.9c0.8-0.8,1.5-1.6,1.8-2.1c0.9-1.6,1.2-2.9,0.9-4c-0.4-1.3-1.5-2-2.4-2.5c-0.2-0.1-0.4-0.2-0.6-0.4l0,0    c-2.3-1.3-6.1-4.4-7.9-6.9c5.6-2.2,11.7-3.3,18-3.3c19.7,0,36.7,11.3,45.1,27.8c-4.8,0.6-7.9,0.6-12.6-1.4c-0.4-0.1-0.8,0-1,0.3    C89,35.1,89.1,35.5,89.3,35.8z"/>
	</g>
	<g>
		<path class="st2" d="M148.1,53.2c-3.6,0-4.5,0-8.3,0.1l-0.2-0.2c0-3.4,0-6.8,0.1-10.2c0-2.2,0.1-4.4,0.1-6.5    c0-3.4-0.1-5.8-0.2-9.9l0.2-0.2c3.7,0,4.5,0,8.3-0.1l0.2,0.2c-0.1,3.8-0.2,6.1-0.2,10.5c0,5.4,0.1,10.8,0.3,16.2L148.1,53.2z"/>
		<path class="st2" d="M171.7,53.1c-2.1-2.9-2.3-3.2-4.3-6c-1.7-2.4-7.1-9.6-7.1-9.6l0.5,15.4l-0.2,0.2c-2.9,0-3.6,0-6.4,0.1L154,53    c0.1-2.6,0.1-4.1,0.1-6.5c0-6.7-0.1-13.4-0.4-20.2l0.2-0.2h3.4c1.1,0,2.2-0.1,3.3-0.1l0.2,0.1c1.8,2.6,2.2,3.2,4.3,6    c2.1,2.9,2.9,4,5.9,8.2c0-7.1,0-8.5-0.2-14l0.2-0.2l6.2-0.1l0.2,0.2c0,2.4,0,14.3,0,17c0,3.6,0,5.6,0.1,9.7l-0.2,0.2l-5.3,0.1    L171.7,53.1z"/>
		<path class="st2" d="M194.1,31.9c0,2.4,0,4.7,0,7.1c0,4.6,0.1,9.1,0.2,13.9l-0.3,0.3c-3.3,0-4.4,0-7.9,0.1l-0.2-0.2    C186,45.2,186,42.9,186,32l-6.1,0.2l-0.2-0.2l0.2-5.5l0.3-0.2h20h0.2c-0.2,2.5-0.2,3.2-0.3,5.6l-0.2,0.2L194.1,31.9z"/>
		<path class="st2" d="M210.7,42v5.3c3,0,5.8-0.1,9.7-0.2l0.2,0.2l-0.4,5.7l-0.3,0.2c-5.2,0-6.1,0-7.3,0c-4.2,0-6.4,0.1-10,0.2    l-0.2-0.3c0.1-4.4,0.2-6.8,0.2-11.9c0-9.2-0.1-10.7-0.3-14.6l0.2-0.2h17.2l0.2,0.2l-0.3,5.3l-0.2,0.2h-8.8v4.8l8.4-0.2l0.2,0.3    l-0.3,5l-0.3,0.2h-7.9L210.7,42L210.7,42z"/>
		<path class="st2" d="M232.7,43.2c0,4.6,0,5.6,0.3,9.7l-0.2,0.2l-7.9,0.1l-0.2-0.2c0.1-4.9,0.2-9.8,0.2-14.8    c0-6.1-0.2-8.3-0.4-11.9l0.2-0.2h6.9h2c3.8-0.1,7.3-0.1,9.5,1.6c1,0.8,2.7,2.7,2.7,6.1c0,1.8-0.5,3.2-0.9,4    c-1,2.2-2.5,2.9-3.8,3.4l3.5,6.8l2.6,4.5l-0.2,0.3l-8.1,0.3l-0.4-0.3l-2.1-4.8l-2.4-5L232.7,43.2z M232.7,38    c1.4,0,5.1,0.1,5.1-3.4c0-1.7-0.8-3-3.1-3c-0.5,0-1.5,0-1.9,0L232.7,38z"/>
		<path class="st2" d="M268,53.1c-2.1-2.9-2.3-3.2-4.3-6c-1.7-2.4-7.1-9.6-7.1-9.6l0.5,15.4l-0.2,0.2c-2.9,0-3.6,0-6.4,0.1l-0.2-0.2    c0.1-2.6,0.1-4.1,0.1-6.5c0-6.7-0.1-13.4-0.4-20.2l0.2-0.2h3.4c1.1,0,2.2-0.1,3.3-0.1l0.2,0.1c1.8,2.6,2.2,3.2,4.3,6    c2.1,2.9,2.9,4,5.9,8.2c0-7.1,0-8.5-0.2-14l0.2-0.2l6.2-0.1l0.2,0.2c0,2.4,0,14.3,0,17c0,3.6,0,5.6,0.1,9.7l-0.2,0.2l-5.3,0.1    L268,53.1z"/>
		<path class="st2" d="M284.9,46.6l-1.5,6.4l-0.3,0.2h-7l-0.2-0.3l8.3-26.5l0.2-0.2l9.7-0.1l0.3,0.2l7.8,26.6l-0.3,0.3H298    c-1.3,0-2.6,0.1-3.9,0.1l-0.3-0.2l-1.5-6.5H284.9z M291,41.1l-1-4l-1.3-5.8c-0.5,2-0.7,2.9-1.5,6l-1,3.9h4.8V41.1z"/>
		<path class="st2" d="M313.5,31.9c0,2.4,0,4.7,0,7.1c0,4.6,0.1,9.1,0.2,13.9l-0.3,0.3c-3.3,0-4.4,0-7.9,0.1l-0.2-0.2    c0.2-7.8,0.2-10.2,0.2-21.1l-6.1,0.2l-0.2-0.2l0.2-5.5l0.3-0.2h20h0.2c-0.2,2.5-0.2,3.2-0.3,5.6l-0.2,0.2L313.5,31.9z"/>
		<path class="st2" d="M330.3,53.2c-3.6,0-4.5,0-8.3,0.1l-0.2-0.2c0-3.4,0-6.8,0.1-10.2c0-2.2,0.1-4.4,0.1-6.5    c0-3.4-0.1-5.8-0.2-9.9l0.2-0.2c3.7,0,4.5,0,8.3-0.1l0.2,0.2c-0.1,3.8-0.2,6.1-0.2,10.5c0,5.4,0.1,10.8,0.3,16.2L330.3,53.2z"/>
		<path class="st2" d="M356.5,48.3c-2.7,4.7-7.7,5.4-11,5.4c-8.1,0-12.6-4.9-12.6-13.6c0-3.1,0.4-6.3,2-9s4.7-5.5,10.7-5.5    c2.4,0,6.2,0.5,8.8,2.9c2.1,2,3.7,5,3.9,10.8C358.4,41.5,358.2,45.4,356.5,48.3z M345.8,31.4c-3.6,0-4.4,3.7-4.4,8.5    c0,2.4,0.2,8,4.3,8c4,0,4.4-5.2,4.3-8.3C349.9,35.2,349,31.4,345.8,31.4z"/>
		<path class="st2" d="M378.7,53.1c-2.1-2.9-2.3-3.2-4.3-6c-1.7-2.4-7.1-9.6-7.1-9.6l0.5,15.4l-0.2,0.2c-2.9,0-3.6,0-6.4,0.1L361,53    c0.1-2.6,0.1-4.1,0.1-6.5c0-6.7-0.1-13.4-0.4-20.2l0.2-0.2h3.4c1.1,0,2.2-0.1,3.3-0.1l0.2,0.1c1.8,2.6,2.2,3.2,4.3,6    c2.1,2.9,2.9,4,5.9,8.2c0-7.1,0-8.5-0.2-14l0.2-0.2l6.2-0.1l0.2,0.2c0,2.4,0,14.3,0,17c0,3.6,0,5.6,0.1,9.7l-0.2,0.2l-5.3,0.1    L378.7,53.1z"/>
		<path class="st2" d="M395.6,46.6l-1.5,6.4l-0.3,0.2h-7l-0.2-0.3l8.3-26.5l0.2-0.2l9.7-0.1l0.3,0.2l7.8,26.6l-0.3,0.3h-3.9    c-1.3,0-2.6,0.1-3.9,0.1l-0.3-0.2l-1.5-6.5H395.6z M401.8,41.1l-1-4l-1.3-5.8c-0.5,2-0.7,2.9-1.5,6l-1,3.9h4.8V41.1z"/>
		<path class="st2" d="M423.7,26.3c0,1-0.1,1.9-0.2,2.9c-0.1,3.2-0.2,14.4-0.2,18.1c4.7,0,5.6-0.1,9.5-0.2l0.2,0.2l-0.4,5.7    l-0.2,0.2c-8.2-0.1-10.3,0-17.1,0.1l-0.2-0.2c0-2.5,0-3.4,0-4.9c0-3.2,0-6.5-0.1-9.7c0-7.4,0-8.2-0.1-12.1l0.2-0.2l8.2-0.1    L423.7,26.3z"/>
		<path class="st2" d="M146,63.4c0.7,3.6,1.4,7.1,2.1,10.7c0.7,3.2,1.5,6.3,2.2,9.5c0.4-1.9,0.8-3.8,1.2-5.8    c1.7-7.8,1.9-8.7,2.9-14.1l0.2-0.2l7.2-0.1l0.2,0.2c-4.9,16.1-5,16.5-7.8,26.7l-0.3,0.2c-3.7,0-4.9,0-8.6,0.1l-0.2-0.2    c-0.6-2.2-1.2-4.4-1.8-6.7c-0.7-2.5-1.5-5-2.3-7.5c-0.8-2.7-1.6-5.4-2.4-8.1c-0.4-1.4-0.8-2.8-1.3-4.2l0.1-0.2    c1.5,0,3-0.1,4.4-0.1c1.3-0.1,2.6-0.2,3.9-0.2L146,63.4z"/>
		<path class="st2" d="M187,85.5c-2.7,4.7-7.7,5.4-11,5.4c-8.1,0-12.6-4.9-12.6-13.6c0-3.1,0.4-6.3,2-9s4.7-5.5,10.7-5.5    c2.4,0,6.2,0.5,8.8,2.9c2.1,2,3.7,5,3.9,10.8C188.8,78.7,188.6,82.7,187,85.5z M176.2,68.6c-3.6,0-4.4,3.7-4.4,8.5    c0,2.4,0.2,8,4.3,8c4,0,4.4-5.2,4.3-8.3C180.4,72.4,179.5,68.6,176.2,68.6z"/>
		<path class="st2" d="M200.9,63.5c0,1-0.1,1.9-0.2,2.9c-0.1,3.2-0.2,14.4-0.2,18.1c4.7,0,5.6-0.1,9.5-0.2l0.2,0.2l-0.4,5.7    l-0.2,0.2c-8.2-0.1-10.3,0-17.1,0.1l-0.2-0.2c0-2.5,0-3.4,0-4.9c0-3.2,0-6.5-0.1-9.7c0-7.4,0-8.2-0.1-12.1l0.2-0.2l8.2-0.1    L200.9,63.5z"/>
		<path class="st2" d="M221,63.5c-0.1,5-0.2,10.1-0.2,15.2c0,1.5,0,3.1,0.4,4.3c0.5,1.5,1.5,2.4,3.3,2.4c0.7,0,1.8-0.1,2.6-1    c1.2-1.2,1.2-3.1,1.2-5.9c0-6.8-0.1-10.5-0.3-14.9l0.2-0.2l7-0.1l0.2,0.2l-0.2,15.7v1.5c-0.2,2.8-0.3,6.2-3.4,8.4    c-1.6,1.1-4.4,1.9-7.8,1.9c-2.7,0-7.2-0.5-9.4-3.3c-1.8-2.2-1.9-5.1-1.9-7.5V79c0-7.8,0-9.4-0.2-15.3l0.2-0.2    C216.3,63.5,217.2,63.5,221,63.5L221,63.5z"/>
		<path class="st2" d="M257.7,90.4c-2.1-2.9-2.3-3.2-4.3-6c-1.7-2.4-7.1-9.6-7.1-9.6l0.5,15.4l-0.2,0.2c-2.9,0-3.6,0-6.4,0.1    l-0.2-0.2c0.1-2.6,0.1-4.1,0.1-6.5c0-6.7-0.1-13.4-0.4-20.2l0.2-0.2h3.4c1.1,0,2.2-0.1,3.3-0.1l0.2,0.1c1.8,2.6,2.2,3.2,4.3,6    c2.1,2.9,2.9,4,5.9,8.2c0-7.1,0-8.5-0.2-14l0.2-0.2l6.2-0.1l0.2,0.2c0,2.4,0,14.3,0,17c0,3.6,0,5.6,0.1,9.7l-0.2,0.2l-5.3,0.1    L257.7,90.4z"/>
		<path class="st2" d="M281.6,69.2c0,2.4,0,4.7,0,7.1c0,4.6,0.1,9.1,0.2,13.9l-0.3,0.3c-3.3,0-4.4,0-7.9,0.1l-0.2-0.2    c0.2-7.8,0.2-10.2,0.2-21.1l-6.1,0.2l-0.2-0.2l0.2-5.5l0.3-0.2h20h0.2c-0.2,2.5-0.2,3.2-0.3,5.6l-0.2,0.2L281.6,69.2z"/>
		<path class="st2" d="M299,79.3v5.3c3,0,5.8-0.1,9.7-0.2l0.2,0.2l-0.4,5.7l-0.3,0.2c-5.2,0-6.1,0-7.3,0c-4.2,0-6.4,0.1-10,0.2    l-0.2-0.3c0.1-4.4,0.2-6.8,0.2-11.9c0-9.2-0.1-10.7-0.3-14.6l0.2-0.2H308l0.2,0.2l-0.3,5.3l-0.2,0.2h-8.8v4.8l8.4-0.2l0.2,0.3    l-0.3,5l-0.3,0.2H299V79.3z"/>
		<path class="st2" d="M321.2,79.3v5.3c3,0,5.8-0.1,9.7-0.2l0.2,0.2l-0.4,5.7l-0.3,0.2c-5.2,0-6.1,0-7.3,0c-4.2,0-6.4,0.1-10,0.2    l-0.2-0.3c0.1-4.4,0.2-6.8,0.2-11.9c0-9.2-0.1-10.7-0.3-14.6l0.2-0.2h17.2l0.2,0.2l-0.3,5.3l-0.2,0.2h-8.8v4.8l8.4-0.2l0.2,0.3    l-0.3,5l-0.3,0.2h-7.9L321.2,79.3L321.2,79.3z"/>
		<path class="st2" d="M343.2,80.5c0,4.6,0,5.6,0.3,9.7l-0.2,0.2l-7.9,0.1l-0.2-0.2c0.1-4.9,0.2-9.8,0.2-14.8    c0-6.1-0.2-8.3-0.4-11.9l0.2-0.2h6.9h2c3.8-0.1,7.3-0.1,9.5,1.6c1,0.8,2.7,2.7,2.7,6.1c0,1.8-0.5,3.2-0.9,4    c-1,2.2-2.5,2.9-3.8,3.4l3.5,6.8l2.6,4.5l-0.2,0.3l-8.1,0.3l-0.4-0.3l-2.1-4.8l-2.4-5L343.2,80.5z M343.2,75.2    c1.4,0,5.1,0.1,5.1-3.4c0-1.7-0.8-3-3.1-3c-0.5,0-1.5,0-1.9,0L343.2,75.2z"/>
		<path class="st2" d="M387.1,90.3c0-2.3,0.1-5.9,0.1-8.2c0-1,0-2,0-3.1c-1.1,0-2.1,0-3.2,0c-1.5,0-2.7,0-4.5,0.1v11.1l-0.2,0.2    l-8.1,0.1l-0.2-0.2c0.1-10.5,0.2-14.1,0.2-15.3c0-3.7-0.1-7.1-0.2-11.3l0.2-0.2c1,0,2.1,0,3.1,0c1.7,0,3.2-0.1,5-0.2l0.2,0.2v9.6    h7.7l-0.2-9.5l0.2-0.2l8.2-0.1l0.2,0.2c-0.1,4.9-0.2,9.8-0.2,14.7c0,4.7,0,7.4,0.2,12l-0.2,0.2c-3.6,0-4.8,0-8.1,0.1L387.1,90.3z"/>
		<path class="st2" d="M423.4,97.8c-2-1.1-2.3-1.3-5.1-2.7c-1.9-1-4-2.1-5.9-3.1c-0.8-0.4-1.6-0.8-2.4-1.1l-0.4-0.1    c-0.8-0.2-1.8-0.3-2.5-0.6c-4.7-1.5-7.5-5.8-7.5-13.1c0-8.3,3.7-14.2,12.7-14.2c3,0,6.1,0.6,8.4,2.6c3.4,2.8,4.4,7.4,4.4,11.8    c0,3.7-0.5,5.9-1.7,7.8c-1.6,2.5-3.4,3.3-5.1,4c3.5,1.2,4.8,1.6,8.4,2.7l0.3,0.4c-1.3,2.1-1.8,2.9-3.1,5.5L423.4,97.8z     M415.9,71.4c-0.9-2.6-2.8-2.8-3.5-2.8c-3.5,0-4.4,3.6-4.4,8.6c0,1.8,0.1,8,4.4,8c1.3,0,3.2-0.8,3.9-4c0.3-1.3,0.4-3.3,0.4-4.4    C416.6,73.7,416.1,72,415.9,71.4z"/>
	</g>
</g>
</svg>